<svg xmlns="http://www.w3.org/2000/svg" width="14.031" height="14" viewBox="0 0 14.031 14">
  <metadata><?xpacket begin="﻿" id="W5M0MpCehiHzreSzNTczkc9d"?>
<x:xmpmeta xmlns:x="adobe:ns:meta/" x:xmptk="Adobe XMP Core 5.6-c138 79.159824, 2016/09/14-01:09:01        ">
   <rdf:RDF xmlns:rdf="http://www.w3.org/1999/02/22-rdf-syntax-ns#">
      <rdf:Description rdf:about=""/>
   </rdf:RDF>
</x:xmpmeta>
                                                                                                    
                                                                                                    
                                                                                                    
                                                                                                    
                                                                                                    
                                                                                                    
                                                                                                    
                                                                                                    
                                                                                                    
                                                                                                    
                                                                                                    
                                                                                                    
                                                                                                    
                                                                                                    
                                                                                                    
                                                                                                    
                                                                                                    
                                                                                                    
                                                                                                    
                                                                                                    
                           
<?xpacket end="w"?></metadata>
<defs>
    <style>
      .cls-1 {
        fill: #fff;
        fill-rule: evenodd;
      }
    </style>
  </defs>
  <path id="phone_icon" data-name="phone icon" class="cls-1" d="M176.92,13.517c0.56-.561,2.253-0.654,2.266-0.357s1.525,3.584,1.538,3.88a5.893,5.893,0,0,1-1.293,1.6c-0.292.292,1.977,2.858,2.02,2.907s2.612,2.313,2.905,2.02a5.9,5.9,0,0,1,1.6-1.293c0.3,0.013,3.582,1.526,3.878,1.539s0.2,1.706-.357,2.267c-0.479.479-2.96,2.218-7.273-.888a13.679,13.679,0,0,1-2.358-2.032l0,0,0,0a0.006,0.006,0,0,1,0,0l0,0a13.674,13.674,0,0,1-2.031-2.359C174.7,16.478,176.441,14,176.92,13.517Z" transform="translate(-175.969 -13)"/>
</svg>
