<svg xmlns="http://www.w3.org/2000/svg" width="10" height="8" viewBox="0 0 10 8">
  <metadata><?xpacket begin="﻿" id="W5M0MpCehiHzreSzNTczkc9d"?>
<x:xmpmeta xmlns:x="adobe:ns:meta/" x:xmptk="Adobe XMP Core 5.6-c138 79.159824, 2016/09/14-01:09:01        ">
   <rdf:RDF xmlns:rdf="http://www.w3.org/1999/02/22-rdf-syntax-ns#">
      <rdf:Description rdf:about=""/>
   </rdf:RDF>
</x:xmpmeta>
                                                                                                    
                                                                                                    
                                                                                                    
                                                                                                    
                                                                                                    
                                                                                                    
                                                                                                    
                                                                                                    
                                                                                                    
                                                                                                    
                                                                                                    
                                                                                                    
                                                                                                    
                                                                                                    
                                                                                                    
                                                                                                    
                                                                                                    
                                                                                                    
                                                                                                    
                                                                                                    
                           
<?xpacket end="w"?></metadata>
<defs>
    <style>
      .cls-1 {
        fill: #fff;
        fill-rule: evenodd;
      }
    </style>
  </defs>
  <path id="tick" class="cls-1" d="M512.085,675.383l0.9-.959a0.3,0.3,0,0,1,.45,0l3.784,4.036a0.356,0.356,0,0,1,0,.48l-0.9.959a0.3,0.3,0,0,1-.449,0l-3.784-4.036A0.356,0.356,0,0,1,512.085,675.383Zm8.933-3.293,0.887,0.947a0.349,0.349,0,0,1,0,.473l-5.677,6.389a0.3,0.3,0,0,1-.443,0l-0.888-.947a0.351,0.351,0,0,1,0-.473l5.677-6.389A0.3,0.3,0,0,1,521.018,672.09Z" transform="translate(-512 -672)"/>
</svg>
